<?xml version="1.0" encoding="UTF-8" standalone="no"?>
<svg
   xmlns:dc="http://purl.org/dc/elements/1.1/"
   xmlns:cc="http://creativecommons.org/ns#"
   xmlns:rdf="http://www.w3.org/1999/02/22-rdf-syntax-ns#"
   xmlns:svg="http://www.w3.org/2000/svg"
   xmlns="http://www.w3.org/2000/svg"
   xmlns:sodipodi="http://sodipodi.sourceforge.net/DTD/sodipodi-0.dtd"
   xmlns:inkscape="http://www.inkscape.org/namespaces/inkscape"
   version="1.0"
   width="2764.000000pt"
   height="1648.000000pt"
   viewBox="0 0 2764.000000 1648.000000"
   preserveAspectRatio="xMidYMid meet"
   id="svg2"
   inkscape:version="0.91 r"
   sodipodi:docname="logo.svg">
  <defs
     id="defs24" />
  <sodipodi:namedview
     pagecolor="#ffffff"
     bordercolor="#666666"
     borderopacity="1"
     objecttolerance="10"
     gridtolerance="10"
     guidetolerance="10"
     inkscape:pageopacity="0"
     inkscape:pageshadow="2"
     inkscape:window-width="2560"
     inkscape:window-height="1370"
     id="namedview22"
     showgrid="false"
     inkscape:zoom="27.267149"
     inkscape:cx="1322.5738"
     inkscape:cy="725.35557"
     inkscape:window-x="0"
     inkscape:window-y="0"
     inkscape:window-maximized="1"
     inkscape:current-layer="svg2" />
  <metadata
     id="metadata4">
Created by potrace 1.13, written by Peter Selinger 2001-2015
<rdf:RDF>
  <cc:Work
     rdf:about="">
    <dc:format>image/svg+xml</dc:format>
    <dc:type
       rdf:resource="http://purl.org/dc/dcmitype/StillImage" />
  </cc:Work>
</rdf:RDF>
</metadata>
  <g
     transform="translate(0.000000,1648.000000) scale(0.100000,-0.100000)"
     fill="#000000"
     stroke="none"
     id="g6">
    <path
       d="M7192 15938 c-21 -40 -129 -237 -239 -438 -110 -201 -294 -536 -408 -745 -114 -209 -378 -690 -585 -1070 -951 -1737 -1958 -3578 -2175 -3975 -131 -239 -288 -527 -350 -640 -62 -113 -192 -351 -290 -530 -98 -179 -307 -561 -465 -850 -314 -573 -550 -1005 -958 -1750 -145 -267 -330 -604 -410 -750 -261 -477 -300 -550 -294 -550 3 0 1400 699 3104 1553 l3098 1552 0 4113 c0 2816 3 4119 10 4133 6 10 9 19 6 19 -2 0 -22 -33 -44 -72z"
       id="path8" />
    <path
       d="M19652 15938 c-21 -40 -129 -237 -239 -438 -110 -201 -294 -536 -408 -745 -114 -209 -378 -690 -585 -1070 -951 -1737 -1958 -3578 -2175 -3975 -131 -239 -288 -527 -350 -640 -62 -113 -192 -351 -290 -530 -98 -179 -307 -561 -465 -850 -314 -573 -550 -1005 -958 -1750 -145 -267 -330 -604 -410 -750 -261 -477 -300 -550 -294 -550 3 0 1400 699 3104 1553 l3098 1552 0 4113 c0 2816 3 4119 10 4133 6 10 9 19 6 19 -2 0 -22 -33 -44 -72z"
       id="path10" />
    <path
       d="M7240 11869 l1 -4124 3094 -1550 c1702 -852 3099 -1551 3105 -1553 11 -4 14 25 3 30 -5 2 -16 19 -25 38 -10 19 -22 42 -26 50 -5 8 -15 26 -22 40 -12 23 -24 44 -89 165 -55 100 -66 120 -71 125 -3 3 -20 34 -38 70 -18 36 -46 88 -62 115 -17 28 -40 70 -51 95 -12 25 -24 47 -28 50 -3 3 -17 28 -30 55 -14 28 -27 52 -31 55 -4 3 -19 30 -34 60 -14 30 -41 82 -60 115 -18 33 -57 105 -86 160 -29 55 -56 105 -61 110 -4 6 -21 35 -37 65 -38 73 -56 104 -63 110 -3 3 -20 34 -37 70 -17 36 -47 92 -65 125 -18 33 -55 101 -82 150 -27 50 -51 92 -54 95 -3 3 -20 32 -37 65 -46 91 -119 226 -197 365 -39 69 -79 143 -90 165 -11 22 -23 42 -28 43 -5 2 -9 8 -9 14 0 9 -65 132 -138 262 -13 22 -35 64 -50 91 -14 28 -29 52 -32 55 -3 3 -14 23 -25 45 -10 22 -38 76 -63 120 -25 44 -59 107 -77 140 -65 123 -109 201 -125 225 -9 14 -22 40 -29 58 -8 17 -16 32 -20 32 -4 0 -20 28 -35 63 -16 34 -32 64 -35 67 -3 3 -19 30 -34 60 -35 69 -70 133 -77 140 -3 3 -14 24 -24 48 -11 23 -23 42 -28 42 -4 0 -8 8 -8 18 0 10 -4 22 -9 28 -5 5 -31 50 -57 99 -26 50 -58 106 -71 125 -12 19 -23 40 -23 46 0 7 -3 14 -7 16 -5 2 -24 35 -44 73 -62 119 -120 228 -150 278 -16 26 -29 51 -29 56 0 5 -6 16 -13 23 -7 7 -25 38 -39 68 -15 30 -34 66 -42 80 -13 21 -60 107 -151 275 -73 136 -110 201 -115 205 -4 3 -21 34 -39 70 -39 80 -67 132 -78 145 -4 6 -32 58 -62 115 -30 58 -57 107 -60 110 -3 3 -28 48 -55 100 -27 52 -52 97 -55 100 -3 3 -21 34 -39 70 -53 105 -85 165 -91 170 -3 3 -16 25 -29 50 -43 84 -71 135 -79 145 -4 6 -32 57 -62 115 -29 58 -59 112 -66 120 -6 8 -17 30 -25 48 -7 17 -15 32 -19 32 -4 0 -12 15 -19 33 -6 18 -18 41 -27 52 -8 11 -37 64 -65 118 -28 54 -55 104 -60 110 -6 7 -31 53 -57 102 -51 100 -59 114 -108 200 -19 33 -42 76 -51 95 -9 19 -19 37 -23 40 -3 3 -24 41 -46 85 -22 43 -60 113 -85 155 -25 41 -54 94 -64 118 -11 23 -23 42 -28 42 -4 0 -8 8 -8 18 0 10 -4 22 -10 28 -9 9 -37 60 -82 149 -12 22 -24 42 -27 45 -4 3 -13 20 -21 38 -7 19 -18 39 -24 45 -6 7 -26 41 -43 77 -18 36 -37 72 -43 80 -12 18 -79 142 -209 385 -24 44 -49 87 -55 95 -7 8 -27 44 -44 80 -18 36 -46 88 -62 115 -16 28 -34 61 -40 74 -6 14 -36 70 -67 125 -65 114 -98 176 -121 224 -9 17 -20 32 -24 32 -4 0 -8 5 -8 12 0 6 -32 70 -72 142 -39 72 -87 160 -106 196 -20 36 -38 67 -41 70 -3 3 -17 28 -31 55 -13 28 -27 52 -30 55 -3 3 -20 34 -38 70 -52 102 -129 244 -139 255 -5 6 -15 25 -22 43 -7 17 -17 32 -22 32 -5 0 -9 7 -9 15 0 8 -11 31 -25 51 -14 20 -25 43 -25 50 0 8 -3 14 -8 14 -4 0 -18 25 -31 55 -13 30 -27 55 -30 55 -3 0 -15 20 -26 45 -11 25 -23 45 -27 45 -5 0 -8 8 -8 18 0 10 -4 22 -10 28 -5 5 -20 30 -33 54 -13 25 -40 77 -61 115 -21 39 -59 108 -84 155 -25 47 -54 96 -64 109 -17 23 -18 -107 -18 -4100z"
       id="path12" />
    <path
       d="M19700 11869 l1 -4124 3105 -1555 c1708 -855 3108 -1559 3111 -1563 3 -5 -1393 692 -3102 1548 -1708 857 -3108 1555 -3111 1553 -2 -3 -3 -1618 -2 -3589 l3 -3584 22 22 c13 13 26 23 29 23 12 0 154 94 154 102 0 4 7 8 15 8 8 0 24 9 35 20 11 11 23 20 26 20 13 0 154 93 154 101 0 5 7 9 15 9 8 0 24 9 35 20 11 11 23 20 26 20 10 0 126 72 144 89 9 9 32 25 51 35 56 32 173 108 184 121 6 6 17 14 26 17 18 7 341 217 349 227 3 4 17 12 33 18 15 7 27 17 27 23 0 5 6 10 13 10 15 0 151 88 155 101 2 5 9 9 15 9 12 0 208 126 217 139 3 4 12 10 22 14 9 3 90 54 180 113 89 58 216 141 282 183 65 42 126 83 135 91 9 8 29 21 44 27 15 7 27 17 27 23 0 5 5 10 12 10 13 0 198 116 213 133 6 7 31 23 58 37 26 14 57 34 70 45 12 12 29 24 38 27 8 3 82 50 165 104 82 53 214 140 294 192 80 52 147 98 150 101 3 4 16 12 30 19 37 18 160 98 187 122 13 11 26 20 29 20 13 0 214 133 214 142 0 4 5 8 11 8 13 0 154 88 180 113 11 9 23 17 28 17 5 0 11 3 13 8 2 4 19 16 38 26 43 24 183 116 190 126 3 3 13 9 22 13 19 7 340 215 348 226 3 3 21 14 40 25 19 10 40 24 45 30 6 6 31 22 58 36 26 14 57 34 70 45 12 12 29 24 39 27 18 7 200 126 208 137 3 3 21 15 40 25 19 11 107 67 195 124 88 57 207 134 264 171 57 36 111 73 120 81 10 8 33 24 52 34 19 11 97 61 174 111 77 51 149 97 160 103 50 29 57 39 44 64 -6 13 -15 25 -18 28 -3 3 -14 21 -23 40 -10 19 -22 42 -26 50 -5 8 -15 26 -22 40 -12 23 -24 44 -89 165 -55 100 -66 120 -71 125 -3 3 -20 34 -38 70 -18 36 -46 88 -62 115 -17 28 -40 70 -51 95 -12 25 -24 47 -28 50 -3 3 -17 28 -30 55 -14 28 -27 52 -31 55 -4 3 -19 30 -34 60 -14 30 -41 82 -60 115 -18 33 -57 105 -86 160 -29 55 -56 105 -61 110 -4 6 -21 35 -37 65 -38 73 -56 104 -63 110 -3 3 -20 34 -37 70 -17 36 -47 92 -65 125 -18 33 -55 101 -82 150 -27 50 -51 92 -54 95 -3 3 -20 32 -37 65 -46 91 -119 226 -197 365 -39 69 -79 143 -90 165 -11 22 -23 42 -28 43 -5 2 -9 8 -9 14 0 9 -65 132 -138 262 -13 22 -35 64 -50 91 -14 28 -29 52 -32 55 -3 3 -14 23 -25 45 -10 22 -38 76 -63 120 -25 44 -59 107 -77 140 -65 123 -109 201 -125 225 -9 14 -22 40 -29 58 -8 17 -16 32 -20 32 -4 0 -20 28 -35 63 -16 34 -32 64 -35 67 -3 3 -19 30 -34 60 -35 69 -70 133 -77 140 -3 3 -14 24 -24 48 -11 23 -23 42 -28 42 -4 0 -8 8 -8 18 0 10 -4 22 -9 28 -5 5 -31 50 -57 99 -26 50 -58 106 -71 125 -12 19 -23 40 -23 46 0 7 -3 14 -7 16 -5 2 -24 35 -44 73 -62 119 -120 228 -150 278 -16 26 -29 51 -29 56 0 5 -6 16 -13 23 -7 7 -25 38 -39 68 -15 30 -34 66 -42 80 -13 21 -60 107 -151 275 -73 136 -110 201 -115 205 -4 3 -21 34 -39 70 -39 80 -67 132 -78 145 -4 6 -32 58 -62 115 -30 58 -57 107 -60 110 -3 3 -28 48 -55 100 -27 52 -52 97 -55 100 -3 3 -21 34 -39 70 -53 105 -85 165 -91 170 -3 3 -16 25 -29 50 -43 84 -71 135 -79 145 -4 6 -32 57 -62 115 -29 58 -59 112 -66 120 -6 8 -17 30 -25 48 -7 17 -15 32 -19 32 -4 0 -12 15 -19 33 -6 18 -18 41 -27 52 -8 11 -37 64 -65 118 -28 54 -55 104 -60 110 -6 7 -31 53 -57 102 -51 100 -59 114 -108 200 -19 33 -42 76 -51 95 -9 19 -19 37 -23 40 -3 3 -24 41 -46 85 -22 43 -60 113 -85 155 -25 41 -54 94 -64 118 -11 23 -23 42 -28 42 -4 0 -8 8 -8 18 0 10 -4 22 -10 28 -9 9 -37 60 -82 149 -12 22 -24 42 -27 45 -4 3 -13 20 -21 38 -7 19 -18 39 -24 45 -6 7 -26 41 -43 77 -18 36 -37 72 -43 80 -12 18 -79 142 -209 385 -24 44 -49 87 -55 95 -7 8 -27 44 -44 80 -18 36 -46 88 -62 115 -16 28 -34 61 -40 74 -6 14 -36 70 -67 125 -65 114 -98 176 -121 224 -9 17 -20 32 -24 32 -4 0 -8 5 -8 12 0 6 -32 70 -72 142 -39 72 -87 160 -106 196 -20 36 -38 67 -41 70 -3 3 -17 28 -31 55 -13 28 -27 52 -30 55 -3 3 -20 34 -38 70 -52 102 -129 244 -139 255 -5 6 -15 25 -22 43 -7 17 -17 32 -22 32 -5 0 -9 7 -9 15 0 8 -11 31 -25 51 -14 20 -25 43 -25 50 0 8 -3 14 -8 14 -4 0 -18 25 -31 55 -13 30 -27 55 -30 55 -3 0 -15 20 -26 45 -11 25 -23 45 -27 45 -5 0 -8 8 -8 18 0 10 -4 22 -10 28 -5 5 -20 30 -33 54 -13 25 -40 77 -61 115 -21 39 -59 108 -84 155 -25 47 -54 96 -64 109 -17 23 -18 -107 -18 -4100z"
       id="path14" />
    <path
       d="M7240 4145 c0 -3583 0 -3586 20 -3575 11 6 20 15 20 20 0 6 5 10 11 10 16 0 159 92 159 102 0 4 7 8 15 8 8 0 24 9 35 20 11 11 23 20 26 20 13 0 154 93 154 101 0 5 7 9 15 9 8 0 24 9 35 20 11 11 23 20 26 20 10 0 126 72 144 89 9 9 32 25 51 35 56 32 173 108 184 121 6 6 17 14 26 17 18 7 341 217 349 227 3 4 17 12 33 18 15 7 27 17 27 23 0 5 6 10 13 10 15 0 151 88 155 101 2 5 9 9 15 9 12 0 208 126 217 139 3 4 12 10 22 14 9 3 90 54 180 113 89 58 216 141 282 183 65 42 126 83 135 91 9 8 29 21 44 27 15 7 27 17 27 23 0 5 5 10 12 10 13 0 198 116 213 133 6 7 31 23 58 37 26 14 57 34 70 45 12 12 29 24 38 27 8 3 82 50 165 104 82 53 214 140 294 192 80 52 147 98 150 101 3 4 16 12 30 19 37 18 160 98 187 122 13 11 26 20 29 20 13 0 214 133 214 142 0 4 5 8 11 8 13 0 154 88 180 113 11 9 23 17 28 17 5 0 11 3 13 8 2 4 19 16 38 26 43 24 183 116 190 126 3 3 13 9 22 13 19 7 340 215 348 226 3 3 21 14 40 25 19 10 40 24 45 30 6 6 31 22 58 36 26 14 57 34 70 45 12 12 29 24 39 27 18 7 200 126 208 137 3 3 21 15 40 25 19 11 107 67 195 124 88 57 207 134 264 171 57 36 111 73 120 81 10 8 33 24 52 34 38 22 323 206 354 229 18 14 18 17 5 30 -14 14 -6180 3107 -6193 3107 -4 0 -7 -1613 -7 -3585z"
       id="path16" />
    <path
       d="M4108 6167 c-1704 -854 -3098 -1555 -3098 -1559 0 -5 6 -8 14 -8 8 0 16 -4 18 -9 4 -11 204 -141 217 -141 5 0 11 -4 13 -9 2 -5 64 -48 138 -96 74 -49 180 -117 235 -153 55 -36 129 -85 166 -108 36 -24 70 -44 76 -44 6 0 13 -4 15 -9 4 -11 173 -121 186 -121 6 0 12 -4 14 -8 4 -10 181 -130 206 -139 9 -4 19 -10 22 -13 9 -13 148 -100 159 -100 6 0 11 -4 11 -10 0 -5 7 -10 15 -10 8 0 15 -4 15 -10 0 -5 6 -10 14 -10 8 0 16 -4 18 -8 4 -12 203 -142 216 -142 6 0 12 -4 14 -8 4 -12 329 -224 351 -230 9 -2 17 -8 17 -13 0 -5 6 -9 14 -9 8 0 16 -4 18 -9 4 -11 204 -141 217 -141 5 0 11 -4 13 -9 3 -9 323 -220 348 -229 8 -3 17 -9 20 -14 7 -10 397 -265 430 -281 14 -6 27 -14 30 -18 9 -11 190 -130 208 -136 9 -4 19 -10 22 -13 9 -13 207 -140 218 -140 6 0 12 -4 14 -9 3 -9 522 -350 588 -387 19 -10 37 -22 40 -25 12 -14 178 -119 189 -119 6 0 11 -4 11 -10 0 -5 6 -10 14 -10 8 0 16 -4 18 -8 4 -10 151 -110 176 -119 9 -4 19 -10 22 -13 11 -15 146 -100 157 -100 7 0 13 -4 13 -10 0 -5 7 -10 15 -10 8 0 15 -4 15 -10 0 -5 6 -10 14 -10 8 0 16 -4 18 -9 3 -9 353 -240 378 -249 8 -3 17 -9 20 -12 11 -15 176 -120 187 -120 7 0 13 -4 13 -10 0 -5 6 -10 14 -10 8 0 16 -4 18 -9 4 -11 203 -141 216 -141 6 0 12 -4 14 -8 5 -13 141 -102 155 -102 7 0 13 -4 13 -8 0 -5 12 -15 28 -23 15 -8 29 -17 32 -20 3 -3 33 -24 67 -47 50 -34 62 -39 67 -26 3 9 6 1620 6 3580 0 2845 -3 3564 -12 3563 -7 0 -1407 -699 -3110 -1552z"
       id="path18" />
    <path
       d="M16568 6167 c-1704 -854 -3098 -1555 -3098 -1559 0 -5 6 -8 14 -8 8 0 16 -4 18 -9 4 -11 204 -141 217 -141 5 0 11 -4 13 -9 2 -5 64 -48 138 -96 74 -49 180 -117 235 -153 55 -36 129 -85 166 -108 36 -24 70 -44 76 -44 6 0 13 -4 15 -9 4 -11 173 -121 186 -121 6 0 12 -4 14 -8 4 -10 181 -130 206 -139 9 -4 19 -10 22 -13 9 -13 148 -100 159 -100 6 0 11 -4 11 -10 0 -5 7 -10 15 -10 8 0 15 -4 15 -10 0 -5 6 -10 14 -10 8 0 16 -4 18 -8 4 -12 203 -142 216 -142 6 0 12 -4 14 -8 4 -12 329 -224 351 -230 9 -2 17 -8 17 -13 0 -5 6 -9 14 -9 8 0 16 -4 18 -9 4 -11 204 -141 217 -141 5 0 11 -4 13 -9 3 -9 323 -220 348 -229 8 -3 17 -9 20 -14 7 -10 397 -265 430 -281 14 -6 27 -14 30 -18 9 -11 190 -130 208 -136 9 -4 19 -10 22 -13 9 -13 207 -140 218 -140 6 0 12 -4 14 -9 3 -9 522 -350 588 -387 19 -10 37 -22 40 -25 12 -14 178 -119 189 -119 6 0 11 -4 11 -10 0 -5 6 -10 14 -10 8 0 16 -4 18 -8 4 -10 151 -110 176 -119 9 -4 19 -10 22 -13 11 -15 146 -100 157 -100 7 0 13 -4 13 -10 0 -5 7 -10 15 -10 8 0 15 -4 15 -10 0 -5 6 -10 14 -10 8 0 16 -4 18 -9 3 -9 353 -240 378 -249 8 -3 17 -9 20 -12 11 -15 176 -120 187 -120 7 0 13 -4 13 -10 0 -5 6 -10 14 -10 8 0 16 -4 18 -9 4 -11 203 -141 216 -141 6 0 12 -4 14 -8 5 -13 141 -102 155 -102 7 0 13 -4 13 -8 0 -5 12 -15 28 -23 15 -8 29 -17 32 -20 3 -3 33 -24 67 -47 50 -34 62 -39 67 -26 3 9 6 1620 6 3580 0 2845 -3 3564 -12 3563 -7 0 -1407 -699 -3110 -1552z"
       id="path20" />
  </g>
</svg>
